<?xml version="1.0" encoding="UTF-8" standalone="no"?>
<svg
   xmlns:dc="http://purl.org/dc/elements/1.1/"
   xmlns:cc="http://creativecommons.org/ns#"
   xmlns:rdf="http://www.w3.org/1999/02/22-rdf-syntax-ns#"
   xmlns:svg="http://www.w3.org/2000/svg"
   xmlns="http://www.w3.org/2000/svg"
   xmlns:sodipodi="http://sodipodi.sourceforge.net/DTD/sodipodi-0.dtd"
   xmlns:inkscape="http://www.inkscape.org/namespaces/inkscape"
   version="1.1"
   id="Capa_1"
   x="0px"
   y="0px"
   viewBox="0 0 512 512"
   style="enable-background:new 0 0 512 512;"
   xml:space="preserve"
   sodipodi:docname="Process_Analysis_w.svg"
   inkscape:version="1.0.1 (3bc2e813f5, 2020-09-07)"><metadata
   id="metadata1885"><rdf:RDF><cc:Work
       rdf:about=""><dc:format>image/svg+xml</dc:format><dc:type
         rdf:resource="http://purl.org/dc/dcmitype/StillImage" /><dc:title></dc:title></cc:Work></rdf:RDF></metadata><defs
   id="defs1883"><filter
     style="color-interpolation-filters:sRGB;"
     inkscape:label="Greyscale"
     id="filter1889"><feColorMatrix
       values="10 10 10 10 0 10 10 10 10 0 10 10 10 10 0 0 0 0 1 0 "
       id="feColorMatrix1887"
       result="fbSourceGraphic" /><feColorMatrix
       result="fbSourceGraphicAlpha"
       in="fbSourceGraphic"
       values="0 0 0 -1 0 0 0 0 -1 0 0 0 0 -1 0 0 0 0 1 0"
       id="feColorMatrix1987" /><feColorMatrix
       id="feColorMatrix1989"
       values="10 10 10 10 0 10 10 10 10 0 10 10 10 10 0 0 0 0 1 0 "
       in="fbSourceGraphic" /></filter><filter
     style="color-interpolation-filters:sRGB;"
     inkscape:label="Greyscale"
     id="filter1893"><feColorMatrix
       values="10 10 10 10 0 10 10 10 10 0 10 10 10 10 0 0 0 0 1 0 "
       id="feColorMatrix1891"
       result="fbSourceGraphic" /><feColorMatrix
       result="fbSourceGraphicAlpha"
       in="fbSourceGraphic"
       values="0 0 0 -1 0 0 0 0 -1 0 0 0 0 -1 0 0 0 0 1 0"
       id="feColorMatrix1991" /><feColorMatrix
       id="feColorMatrix1993"
       values="10 10 10 10 0 10 10 10 10 0 10 10 10 10 0 0 0 0 1 0 "
       in="fbSourceGraphic" /></filter><filter
     style="color-interpolation-filters:sRGB;"
     inkscape:label="Greyscale"
     id="filter1897"><feColorMatrix
       values="10 10 10 10 0 10 10 10 10 0 10 10 10 10 0 0 0 0 1 0 "
       id="feColorMatrix1895"
       result="fbSourceGraphic" /><feColorMatrix
       result="fbSourceGraphicAlpha"
       in="fbSourceGraphic"
       values="0 0 0 -1 0 0 0 0 -1 0 0 0 0 -1 0 0 0 0 1 0"
       id="feColorMatrix1995" /><feColorMatrix
       id="feColorMatrix1997"
       values="10 10 10 10 0 10 10 10 10 0 10 10 10 10 0 0 0 0 1 0 "
       in="fbSourceGraphic" /></filter><filter
     style="color-interpolation-filters:sRGB;"
     inkscape:label="Greyscale"
     id="filter1901"><feColorMatrix
       values="10 10 10 10 0 10 10 10 10 0 10 10 10 10 0 0 0 0 1 0 "
       id="feColorMatrix1899"
       result="fbSourceGraphic" /><feColorMatrix
       result="fbSourceGraphicAlpha"
       in="fbSourceGraphic"
       values="0 0 0 -1 0 0 0 0 -1 0 0 0 0 -1 0 0 0 0 1 0"
       id="feColorMatrix1999" /><feColorMatrix
       id="feColorMatrix2001"
       values="10 10 10 10 0 10 10 10 10 0 10 10 10 10 0 0 0 0 1 0 "
       in="fbSourceGraphic" /></filter><filter
     style="color-interpolation-filters:sRGB;"
     inkscape:label="Greyscale"
     id="filter1905"><feColorMatrix
       values="10 10 10 10 0 10 10 10 10 0 10 10 10 10 0 0 0 0 1 0 "
       id="feColorMatrix1903"
       result="fbSourceGraphic" /><feColorMatrix
       result="fbSourceGraphicAlpha"
       in="fbSourceGraphic"
       values="0 0 0 -1 0 0 0 0 -1 0 0 0 0 -1 0 0 0 0 1 0"
       id="feColorMatrix2003" /><feColorMatrix
       id="feColorMatrix2005"
       values="10 10 10 10 0 10 10 10 10 0 10 10 10 10 0 0 0 0 1 0 "
       in="fbSourceGraphic" /></filter><filter
     style="color-interpolation-filters:sRGB;"
     inkscape:label="Greyscale"
     id="filter1909"><feColorMatrix
       values="10 10 10 10 0 10 10 10 10 0 10 10 10 10 0 0 0 0 1 0 "
       id="feColorMatrix1907"
       result="fbSourceGraphic" /><feColorMatrix
       result="fbSourceGraphicAlpha"
       in="fbSourceGraphic"
       values="0 0 0 -1 0 0 0 0 -1 0 0 0 0 -1 0 0 0 0 1 0"
       id="feColorMatrix2007" /><feColorMatrix
       id="feColorMatrix2009"
       values="10 10 10 10 0 10 10 10 10 0 10 10 10 10 0 0 0 0 1 0 "
       in="fbSourceGraphic" /></filter><filter
     style="color-interpolation-filters:sRGB;"
     inkscape:label="Greyscale"
     id="filter1913"><feColorMatrix
       values="10 10 10 10 0 10 10 10 10 0 10 10 10 10 0 0 0 0 1 0 "
       id="feColorMatrix1911"
       result="fbSourceGraphic" /><feColorMatrix
       result="fbSourceGraphicAlpha"
       in="fbSourceGraphic"
       values="0 0 0 -1 0 0 0 0 -1 0 0 0 0 -1 0 0 0 0 1 0"
       id="feColorMatrix2011" /><feColorMatrix
       id="feColorMatrix2013"
       values="10 10 10 10 0 10 10 10 10 0 10 10 10 10 0 0 0 0 1 0 "
       in="fbSourceGraphic" /></filter><filter
     style="color-interpolation-filters:sRGB;"
     inkscape:label="Greyscale"
     id="filter1917"><feColorMatrix
       values="10 10 10 10 0 10 10 10 10 0 10 10 10 10 0 0 0 0 1 0 "
       id="feColorMatrix1915"
       result="fbSourceGraphic" /><feColorMatrix
       result="fbSourceGraphicAlpha"
       in="fbSourceGraphic"
       values="0 0 0 -1 0 0 0 0 -1 0 0 0 0 -1 0 0 0 0 1 0"
       id="feColorMatrix2015" /><feColorMatrix
       id="feColorMatrix2017"
       values="10 10 10 10 0 10 10 10 10 0 10 10 10 10 0 0 0 0 1 0 "
       in="fbSourceGraphic" /></filter><filter
     style="color-interpolation-filters:sRGB;"
     inkscape:label="Greyscale"
     id="filter1921"><feColorMatrix
       values="10 10 10 10 0 10 10 10 10 0 10 10 10 10 0 0 0 0 1 0 "
       id="feColorMatrix1919"
       result="fbSourceGraphic" /><feColorMatrix
       result="fbSourceGraphicAlpha"
       in="fbSourceGraphic"
       values="0 0 0 -1 0 0 0 0 -1 0 0 0 0 -1 0 0 0 0 1 0"
       id="feColorMatrix2019" /><feColorMatrix
       id="feColorMatrix2021"
       values="10 10 10 10 0 10 10 10 10 0 10 10 10 10 0 0 0 0 1 0 "
       in="fbSourceGraphic" /></filter><filter
     style="color-interpolation-filters:sRGB;"
     inkscape:label="Greyscale"
     id="filter1925"><feColorMatrix
       values="10 10 10 10 0 10 10 10 10 0 10 10 10 10 0 0 0 0 1 0 "
       id="feColorMatrix1923"
       result="fbSourceGraphic" /><feColorMatrix
       result="fbSourceGraphicAlpha"
       in="fbSourceGraphic"
       values="0 0 0 -1 0 0 0 0 -1 0 0 0 0 -1 0 0 0 0 1 0"
       id="feColorMatrix2023" /><feColorMatrix
       id="feColorMatrix2025"
       values="10 10 10 10 0 10 10 10 10 0 10 10 10 10 0 0 0 0 1 0 "
       in="fbSourceGraphic" /></filter><filter
     style="color-interpolation-filters:sRGB;"
     inkscape:label="Greyscale"
     id="filter1929"><feColorMatrix
       values="10 10 10 10 0 10 10 10 10 0 10 10 10 10 0 0 0 0 1 0 "
       id="feColorMatrix1927"
       result="fbSourceGraphic" /><feColorMatrix
       result="fbSourceGraphicAlpha"
       in="fbSourceGraphic"
       values="0 0 0 -1 0 0 0 0 -1 0 0 0 0 -1 0 0 0 0 1 0"
       id="feColorMatrix2027" /><feColorMatrix
       id="feColorMatrix2029"
       values="10 10 10 10 0 10 10 10 10 0 10 10 10 10 0 0 0 0 1 0 "
       in="fbSourceGraphic" /></filter><filter
     style="color-interpolation-filters:sRGB;"
     inkscape:label="Greyscale"
     id="filter1933"><feColorMatrix
       values="10 10 10 10 0 10 10 10 10 0 10 10 10 10 0 0 0 0 1 0 "
       id="feColorMatrix1931"
       result="fbSourceGraphic" /><feColorMatrix
       result="fbSourceGraphicAlpha"
       in="fbSourceGraphic"
       values="0 0 0 -1 0 0 0 0 -1 0 0 0 0 -1 0 0 0 0 1 0"
       id="feColorMatrix2031" /><feColorMatrix
       id="feColorMatrix2033"
       values="10 10 10 10 0 10 10 10 10 0 10 10 10 10 0 0 0 0 1 0 "
       in="fbSourceGraphic" /></filter><filter
     style="color-interpolation-filters:sRGB;"
     inkscape:label="Greyscale"
     id="filter1937"><feColorMatrix
       values="10 10 10 10 0 10 10 10 10 0 10 10 10 10 0 0 0 0 1 0 "
       id="feColorMatrix1935"
       result="fbSourceGraphic" /><feColorMatrix
       result="fbSourceGraphicAlpha"
       in="fbSourceGraphic"
       values="0 0 0 -1 0 0 0 0 -1 0 0 0 0 -1 0 0 0 0 1 0"
       id="feColorMatrix2035" /><feColorMatrix
       id="feColorMatrix2037"
       values="10 10 10 10 0 10 10 10 10 0 10 10 10 10 0 0 0 0 1 0 "
       in="fbSourceGraphic" /></filter><filter
     style="color-interpolation-filters:sRGB;"
     inkscape:label="Greyscale"
     id="filter1941"><feColorMatrix
       values="10 10 10 10 0 10 10 10 10 0 10 10 10 10 0 0 0 0 1 0 "
       id="feColorMatrix1939"
       result="fbSourceGraphic" /><feColorMatrix
       result="fbSourceGraphicAlpha"
       in="fbSourceGraphic"
       values="0 0 0 -1 0 0 0 0 -1 0 0 0 0 -1 0 0 0 0 1 0"
       id="feColorMatrix2039" /><feColorMatrix
       id="feColorMatrix2041"
       values="10 10 10 10 0 10 10 10 10 0 10 10 10 10 0 0 0 0 1 0 "
       in="fbSourceGraphic" /></filter><filter
     style="color-interpolation-filters:sRGB;"
     inkscape:label="Greyscale"
     id="filter1945"><feColorMatrix
       values="10 10 10 10 0 10 10 10 10 0 10 10 10 10 0 0 0 0 1 0 "
       id="feColorMatrix1943"
       result="fbSourceGraphic" /><feColorMatrix
       result="fbSourceGraphicAlpha"
       in="fbSourceGraphic"
       values="0 0 0 -1 0 0 0 0 -1 0 0 0 0 -1 0 0 0 0 1 0"
       id="feColorMatrix2043" /><feColorMatrix
       id="feColorMatrix2045"
       values="10 10 10 10 0 10 10 10 10 0 10 10 10 10 0 0 0 0 1 0 "
       in="fbSourceGraphic" /></filter><filter
     style="color-interpolation-filters:sRGB;"
     inkscape:label="Greyscale"
     id="filter1949"><feColorMatrix
       values="10 10 10 10 0 10 10 10 10 0 10 10 10 10 0 0 0 0 1 0 "
       id="feColorMatrix1947"
       result="fbSourceGraphic" /><feColorMatrix
       result="fbSourceGraphicAlpha"
       in="fbSourceGraphic"
       values="0 0 0 -1 0 0 0 0 -1 0 0 0 0 -1 0 0 0 0 1 0"
       id="feColorMatrix2047" /><feColorMatrix
       id="feColorMatrix2049"
       values="10 10 10 10 0 10 10 10 10 0 10 10 10 10 0 0 0 0 1 0 "
       in="fbSourceGraphic" /></filter><filter
     style="color-interpolation-filters:sRGB;"
     inkscape:label="Greyscale"
     id="filter1953"><feColorMatrix
       values="10 10 10 10 0 10 10 10 10 0 10 10 10 10 0 0 0 0 1 0 "
       id="feColorMatrix1951"
       result="fbSourceGraphic" /><feColorMatrix
       result="fbSourceGraphicAlpha"
       in="fbSourceGraphic"
       values="0 0 0 -1 0 0 0 0 -1 0 0 0 0 -1 0 0 0 0 1 0"
       id="feColorMatrix2051" /><feColorMatrix
       id="feColorMatrix2053"
       values="10 10 10 10 0 10 10 10 10 0 10 10 10 10 0 0 0 0 1 0 "
       in="fbSourceGraphic" /></filter><filter
     style="color-interpolation-filters:sRGB;"
     inkscape:label="Greyscale"
     id="filter1957"><feColorMatrix
       values="10 10 10 10 0 10 10 10 10 0 10 10 10 10 0 0 0 0 1 0 "
       id="feColorMatrix1955"
       result="fbSourceGraphic" /><feColorMatrix
       result="fbSourceGraphicAlpha"
       in="fbSourceGraphic"
       values="0 0 0 -1 0 0 0 0 -1 0 0 0 0 -1 0 0 0 0 1 0"
       id="feColorMatrix2055" /><feColorMatrix
       id="feColorMatrix2057"
       values="10 10 10 10 0 10 10 10 10 0 10 10 10 10 0 0 0 0 1 0 "
       in="fbSourceGraphic" /></filter><filter
     style="color-interpolation-filters:sRGB;"
     inkscape:label="Greyscale"
     id="filter1961"><feColorMatrix
       values="10 10 10 10 0 10 10 10 10 0 10 10 10 10 0 0 0 0 1 0 "
       id="feColorMatrix1959"
       result="fbSourceGraphic" /><feColorMatrix
       result="fbSourceGraphicAlpha"
       in="fbSourceGraphic"
       values="0 0 0 -1 0 0 0 0 -1 0 0 0 0 -1 0 0 0 0 1 0"
       id="feColorMatrix2059" /><feColorMatrix
       id="feColorMatrix2061"
       values="10 10 10 10 0 10 10 10 10 0 10 10 10 10 0 0 0 0 1 0 "
       in="fbSourceGraphic" /></filter><filter
     style="color-interpolation-filters:sRGB;"
     inkscape:label="Greyscale"
     id="filter1965"><feColorMatrix
       values="10 10 10 10 0 10 10 10 10 0 10 10 10 10 0 0 0 0 1 0 "
       id="feColorMatrix1963"
       result="fbSourceGraphic" /><feColorMatrix
       result="fbSourceGraphicAlpha"
       in="fbSourceGraphic"
       values="0 0 0 -1 0 0 0 0 -1 0 0 0 0 -1 0 0 0 0 1 0"
       id="feColorMatrix2063" /><feColorMatrix
       id="feColorMatrix2065"
       values="10 10 10 10 0 10 10 10 10 0 10 10 10 10 0 0 0 0 1 0 "
       in="fbSourceGraphic" /></filter><filter
     style="color-interpolation-filters:sRGB;"
     inkscape:label="Greyscale"
     id="filter1969"><feColorMatrix
       values="10 10 10 10 0 10 10 10 10 0 10 10 10 10 0 0 0 0 1 0 "
       id="feColorMatrix1967"
       result="fbSourceGraphic" /><feColorMatrix
       result="fbSourceGraphicAlpha"
       in="fbSourceGraphic"
       values="0 0 0 -1 0 0 0 0 -1 0 0 0 0 -1 0 0 0 0 1 0"
       id="feColorMatrix2067" /><feColorMatrix
       id="feColorMatrix2069"
       values="10 10 10 10 0 10 10 10 10 0 10 10 10 10 0 0 0 0 1 0 "
       in="fbSourceGraphic" /></filter><filter
     style="color-interpolation-filters:sRGB;"
     inkscape:label="Greyscale"
     id="filter1973"><feColorMatrix
       values="10 10 10 10 0 10 10 10 10 0 10 10 10 10 0 0 0 0 1 0 "
       id="feColorMatrix1971"
       result="fbSourceGraphic" /><feColorMatrix
       result="fbSourceGraphicAlpha"
       in="fbSourceGraphic"
       values="0 0 0 -1 0 0 0 0 -1 0 0 0 0 -1 0 0 0 0 1 0"
       id="feColorMatrix2071" /><feColorMatrix
       id="feColorMatrix2073"
       values="10 10 10 10 0 10 10 10 10 0 10 10 10 10 0 0 0 0 1 0 "
       in="fbSourceGraphic" /></filter><filter
     style="color-interpolation-filters:sRGB;"
     inkscape:label="Greyscale"
     id="filter1977"><feColorMatrix
       values="10 10 10 10 0 10 10 10 10 0 10 10 10 10 0 0 0 0 1 0 "
       id="feColorMatrix1975"
       result="fbSourceGraphic" /><feColorMatrix
       result="fbSourceGraphicAlpha"
       in="fbSourceGraphic"
       values="0 0 0 -1 0 0 0 0 -1 0 0 0 0 -1 0 0 0 0 1 0"
       id="feColorMatrix2075" /><feColorMatrix
       id="feColorMatrix2077"
       values="10 10 10 10 0 10 10 10 10 0 10 10 10 10 0 0 0 0 1 0 "
       in="fbSourceGraphic" /></filter><filter
     style="color-interpolation-filters:sRGB;"
     inkscape:label="Greyscale"
     id="filter1981"><feColorMatrix
       values="10 10 10 10 0 10 10 10 10 0 10 10 10 10 0 0 0 0 1 0 "
       id="feColorMatrix1979"
       result="fbSourceGraphic" /><feColorMatrix
       result="fbSourceGraphicAlpha"
       in="fbSourceGraphic"
       values="0 0 0 -1 0 0 0 0 -1 0 0 0 0 -1 0 0 0 0 1 0"
       id="feColorMatrix2079" /><feColorMatrix
       id="feColorMatrix2081"
       values="10 10 10 10 0 10 10 10 10 0 10 10 10 10 0 0 0 0 1 0 "
       in="fbSourceGraphic" /></filter><filter
     style="color-interpolation-filters:sRGB;"
     inkscape:label="Greyscale"
     id="filter1985"><feColorMatrix
       values="10 10 10 10 0 10 10 10 10 0 10 10 10 10 0 0 0 0 1 0 "
       id="feColorMatrix1983"
       result="fbSourceGraphic" /><feColorMatrix
       result="fbSourceGraphicAlpha"
       in="fbSourceGraphic"
       values="0 0 0 -1 0 0 0 0 -1 0 0 0 0 -1 0 0 0 0 1 0"
       id="feColorMatrix2083" /><feColorMatrix
       id="feColorMatrix2085"
       values="10 10 10 10 0 10 10 10 10 0 10 10 10 10 0 0 0 0 1 0 "
       in="fbSourceGraphic" /></filter></defs><sodipodi:namedview
   pagecolor="#ffffff"
   bordercolor="#666666"
   borderopacity="1"
   objecttolerance="10"
   gridtolerance="10"
   guidetolerance="10"
   inkscape:pageopacity="0"
   inkscape:pageshadow="2"
   inkscape:window-width="729"
   inkscape:window-height="480"
   id="namedview1881"
   showgrid="false"
   inkscape:zoom="0.56640625"
   inkscape:cx="256"
   inkscape:cy="256"
   inkscape:window-x="0"
   inkscape:window-y="0"
   inkscape:window-maximized="0"
   inkscape:current-layer="Capa_1" />
<g
   id="g1704"
   style="filter:url(#filter1937)">
	<g
   id="g1702">
		<path
   d="M477.867,102.4c-18.825,0-34.133,15.309-34.133,34.133s15.309,34.133,34.133,34.133S512,155.358,512,136.533    C512,117.709,496.691,102.4,477.867,102.4z M477.867,153.6c-9.412,0-17.067-7.654-17.067-17.067    c0-9.412,7.654-17.067,17.067-17.067s17.067,7.654,17.067,17.067C494.933,145.946,487.279,153.6,477.867,153.6z"
   id="path1700" />
	</g>
</g>
<g
   id="g1710"
   style="filter:url(#filter1977)">
	<g
   id="g1708">
		<path
   d="M34.133,384C15.309,384,0,399.309,0,418.133s15.309,34.133,34.133,34.133c18.825,0,34.133-15.309,34.133-34.133    S52.958,384,34.133,384z M34.133,435.2c-9.412,0-17.067-7.654-17.067-17.067s7.654-17.067,17.067-17.067    c9.412,0,17.067,7.654,17.067,17.067S43.546,435.2,34.133,435.2z"
   id="path1706" />
	</g>
</g>
<g
   id="g1716"
   style="filter:url(#filter1933)">
	<g
   id="g1714">
		<path
   d="M461.321,113.186l-73.617-35.541c-4.25-2.057-9.344-0.265-11.392,3.977c-2.048,4.241-0.265,9.344,3.977,11.392    l73.617,35.541c1.195,0.58,2.458,0.853,3.703,0.853c3.174,0,6.221-1.775,7.688-4.83    C467.345,120.337,465.562,115.234,461.321,113.186z"
   id="path1712" />
	</g>
</g>
<g
   id="g1722"
   style="filter:url(#filter1985)">
	<g
   id="g1720">
		<path
   d="M384,443.733c-18.825,0-34.133,15.309-34.133,34.133S365.175,512,384,512c18.825,0,34.133-15.309,34.133-34.133    S402.825,443.733,384,443.733z M384,494.933c-9.412,0-17.067-7.654-17.067-17.067S374.588,460.8,384,460.8    c9.412,0,17.067,7.654,17.067,17.067S393.412,494.933,384,494.933z"
   id="path1718" />
	</g>
</g>
<g
   id="g1728"
   style="filter:url(#filter1981)">
	<g
   id="g1726">
		<path
   d="M367.454,454.52l-73.617-35.541c-4.25-2.057-9.344-0.273-11.392,3.977c-2.048,4.241-0.265,9.344,3.977,11.392    l73.617,35.541c1.195,0.58,2.458,0.853,3.703,0.853c3.174,0,6.221-1.775,7.689-4.83    C373.478,461.67,371.695,456.568,367.454,454.52z"
   id="path1724" />
	</g>
</g>
<g
   id="g1734"
   style="filter:url(#filter1913)">
	<g
   id="g1732">
		<path
   d="M256,230.4c-18.825,0-34.133,15.309-34.133,34.133c0,18.825,15.309,34.133,34.133,34.133    c18.825,0,34.133-15.309,34.133-34.133C290.133,245.709,274.825,230.4,256,230.4z M256,281.6c-9.412,0-17.067-7.654-17.067-17.067    c0-9.412,7.654-17.067,17.067-17.067c9.412,0,17.067,7.654,17.067,17.067C273.067,273.946,265.412,281.6,256,281.6z"
   id="path1730" />
	</g>
</g>
<g
   id="g1740"
   style="filter:url(#filter1909)">
	<g
   id="g1738">
		<path
   d="M240.998,242.142l-56.55-44.075c-3.721-2.876-9.079-2.236-11.981,1.485c-2.893,3.721-2.236,9.079,1.485,11.981    l56.55,44.075c1.562,1.212,3.405,1.801,5.24,1.801c2.543,0,5.052-1.126,6.741-3.285    C245.376,250.402,244.719,245.043,240.998,242.142z"
   id="path1736" />
	</g>
</g>
<g
   id="g1746"
   style="filter:url(#filter1945)">
	<g
   id="g1744">
		<path
   d="M409.6,221.867c-51.755,0-93.867,42.112-93.867,93.867c0,51.755,42.112,93.867,93.867,93.867    c51.755,0,93.867-42.112,93.867-93.867C503.467,263.979,461.355,221.867,409.6,221.867z M409.6,392.533    c-42.351,0-76.8-34.449-76.8-76.8s34.449-76.8,76.8-76.8s76.8,34.449,76.8,76.8S451.951,392.533,409.6,392.533z"
   id="path1742" />
	</g>
</g>
<g
   id="g1752"
   style="filter:url(#filter1949)">
	<g
   id="g1750">
		<path
   d="M409.6,256c-18.825,0-34.133,15.309-34.133,34.133c0,18.825,15.309,34.133,34.133,34.133    c18.825,0,34.133-15.309,34.133-34.133S428.425,256,409.6,256z M409.6,307.2c-9.412,0-17.067-7.654-17.067-17.067    c0-9.412,7.654-17.067,17.067-17.067c9.412,0,17.067,7.654,17.067,17.067C426.667,299.546,419.012,307.2,409.6,307.2z"
   id="path1748" />
	</g>
</g>
<g
   id="g1758"
   style="filter:url(#filter1953)">
	<g
   id="g1756">
		<path
   d="M434.355,341.333h-49.51c-14.583,0-26.445,11.546-26.445,25.728v22.494c0,3.046,1.621,5.862,4.258,7.39    C376.96,405.222,393.19,409.6,409.6,409.6s32.64-4.378,46.942-12.655c2.637-1.519,4.258-4.344,4.258-7.381V367.07    C460.8,352.879,448.939,341.333,434.355,341.333z M443.733,384.469c-21.239,10.581-47.027,10.581-68.267,0V367.07    c0-4.779,4.207-8.67,9.378-8.67h49.51c5.171,0,9.378,3.891,9.378,8.67V384.469z"
   id="path1754" />
	</g>
</g>
<g
   id="g1764"
   style="filter:url(#filter1973)">
	<g
   id="g1762">
		<path
   d="M204.8,324.267c-51.755,0-93.867,42.112-93.867,93.867S153.045,512,204.8,512c51.755,0,93.867-42.112,93.867-93.867    S256.555,324.267,204.8,324.267z M204.8,494.933c-42.351,0-76.8-34.449-76.8-76.8s34.449-76.8,76.8-76.8    c42.351,0,76.8,34.449,76.8,76.8S247.151,494.933,204.8,494.933z"
   id="path1760" />
	</g>
</g>
<g
   id="g1770"
   style="filter:url(#filter1961)">
	<g
   id="g1768">
		<path
   d="M204.8,358.4c-18.825,0-34.133,15.309-34.133,34.133c0,18.825,15.309,34.133,34.133,34.133s34.133-15.309,34.133-34.133    C238.933,373.709,223.625,358.4,204.8,358.4z M204.8,409.6c-9.412,0-17.067-7.654-17.067-17.067    c0-9.412,7.654-17.067,17.067-17.067c9.412,0,17.067,7.654,17.067,17.067C221.867,401.946,214.212,409.6,204.8,409.6z"
   id="path1766" />
	</g>
</g>
<g
   id="g1776"
   style="filter:url(#filter1965)">
	<g
   id="g1774">
		<path
   d="M229.555,443.733h-49.51c-14.583,0-26.445,11.546-26.445,25.728v22.494c0,3.046,1.621,5.862,4.258,7.39    C172.16,507.622,188.39,512,204.8,512s32.64-4.378,46.942-12.655c2.637-1.519,4.258-4.343,4.258-7.381V469.47    C256,455.279,244.139,443.733,229.555,443.733z M238.933,486.869c-21.24,10.581-47.027,10.581-68.267,0V469.47    c0-4.779,4.207-8.67,9.378-8.67h49.51c5.171,0,9.378,3.891,9.378,8.67V486.869z"
   id="path1772" />
	</g>
</g>
<g
   id="g1782"
   style="filter:url(#filter1897)">
	<g
   id="g1780">
		<path
   d="M93.867,110.933C42.112,110.933,0,153.045,0,204.8c0,51.755,42.112,93.867,93.867,93.867    c51.755,0,93.867-42.112,93.867-93.867C187.733,153.045,145.621,110.933,93.867,110.933z M93.867,281.6    c-42.351,0-76.8-34.449-76.8-76.8c0-42.351,34.449-76.8,76.8-76.8c42.351,0,76.8,34.449,76.8,76.8    C170.667,247.151,136.218,281.6,93.867,281.6z"
   id="path1778" />
	</g>
</g>
<g
   id="g1788"
   style="filter:url(#filter1901)">
	<g
   id="g1786">
		<path
   d="M93.867,145.067c-18.825,0-34.133,15.309-34.133,34.133s15.309,34.133,34.133,34.133    c18.825,0,34.133-15.309,34.133-34.133S112.691,145.067,93.867,145.067z M93.867,196.267c-9.412,0-17.067-7.654-17.067-17.067    s7.654-17.067,17.067-17.067c9.412,0,17.067,7.654,17.067,17.067S103.279,196.267,93.867,196.267z"
   id="path1784" />
	</g>
</g>
<g
   id="g1794"
   style="filter:url(#filter1905)">
	<g
   id="g1792">
		<path
   d="M118.622,230.4h-49.51c-14.583,0-26.445,11.546-26.445,25.728v22.494c0,3.046,1.621,5.862,4.258,7.39    c14.302,8.277,30.532,12.655,46.942,12.655c16.41,0,32.64-4.378,46.942-12.655c2.637-1.519,4.258-4.344,4.258-7.381v-22.494    C145.067,241.946,133.205,230.4,118.622,230.4z M128,273.536c-21.239,10.581-47.027,10.581-68.267,0v-17.399    c0-4.779,4.207-8.67,9.378-8.67h49.51c5.171,0,9.378,3.891,9.378,8.67V273.536z"
   id="path1790" />
	</g>
</g>
<g
   id="g1800"
   style="filter:url(#filter1921)">
	<g
   id="g1798">
		<path
   d="M298.667,0C246.912,0,204.8,42.112,204.8,93.867c0,51.755,42.112,93.867,93.867,93.867    c51.755,0,93.867-42.112,93.867-93.867C392.533,42.112,350.421,0,298.667,0z M298.667,170.667c-42.351,0-76.8-34.449-76.8-76.8    c0-42.351,34.449-76.8,76.8-76.8s76.8,34.449,76.8,76.8C375.467,136.218,341.018,170.667,298.667,170.667z"
   id="path1796" />
	</g>
</g>
<g
   id="g1806"
   style="filter:url(#filter1925)">
	<g
   id="g1804">
		<path
   d="M298.667,34.133c-18.825,0-34.133,15.309-34.133,34.133s15.309,34.133,34.133,34.133S332.8,87.091,332.8,68.267    S317.491,34.133,298.667,34.133z M298.667,85.333c-9.412,0-17.067-7.654-17.067-17.067c0-9.412,7.654-17.067,17.067-17.067    s17.067,7.654,17.067,17.067C315.733,77.679,308.079,85.333,298.667,85.333z"
   id="path1802" />
	</g>
</g>
<g
   id="g1812"
   style="filter:url(#filter1929)">
	<g
   id="g1810">
		<path
   d="M323.422,119.467h-49.51c-14.583,0-26.445,11.546-26.445,25.728v22.494c0,3.046,1.621,5.862,4.258,7.39    c14.302,8.277,30.532,12.655,46.942,12.655s32.64-4.378,46.942-12.655c2.637-1.519,4.258-4.344,4.258-7.381v-22.494    C349.867,131.012,338.005,119.467,323.422,119.467z M332.8,162.603c-21.239,10.581-47.027,10.581-68.267,0v-17.399    c0-4.779,4.207-8.67,9.378-8.67h49.51c5.171,0,9.378,3.891,9.378,8.67V162.603z"
   id="path1808" />
	</g>
</g>
<g
   id="g1818"
   style="filter:url(#filter1917)">
	<g
   id="g1816">
		<path
   d="M219.827,88.311c-3.063-3.567-8.448-3.994-12.032-0.93l-59.136,50.603c-3.584,3.063-4.002,8.448-0.939,12.032    c1.69,1.971,4.079,2.987,6.485,2.987c1.963,0,3.934-0.674,5.547-2.057l59.136-50.603C222.473,97.28,222.891,91.895,219.827,88.311    z"
   id="path1814" />
	</g>
</g>
<g
   id="g1824"
   style="filter:url(#filter1941)">
	<g
   id="g1822">
		<path
   d="M407.893,225.289l-51.2-68.267c-2.825-3.78-8.175-4.523-11.947-1.707c-3.772,2.825-4.531,8.175-1.707,11.938l51.2,68.267    c1.681,2.236,4.241,3.413,6.835,3.413c1.775,0,3.576-0.555,5.112-1.707C409.958,234.402,410.718,229.052,407.893,225.289z"
   id="path1820" />
	</g>
</g>
<g
   id="g1830"
   style="filter:url(#filter1957)">
	<g
   id="g1828">
		<path
   d="M337.86,343.953c-2.825-3.772-8.175-4.531-11.947-1.707l-47.667,35.746c-3.772,2.825-4.531,8.175-1.707,11.938    c1.681,2.236,4.241,3.413,6.835,3.413c1.783,0,3.575-0.563,5.112-1.707l47.667-35.746    C339.925,353.067,340.685,347.716,337.86,343.953z"
   id="path1826" />
	</g>
</g>
<g
   id="g1836"
   style="filter:url(#filter1969)">
	<g
   id="g1834">
		<path
   d="M119.467,409.6H59.733c-4.71,0-8.533,3.814-8.533,8.533s3.823,8.533,8.533,8.533h59.733c4.71,0,8.533-3.814,8.533-8.533    S124.177,409.6,119.467,409.6z"
   id="path1832" />
	</g>
</g>
<g
   id="g1842"
   style="filter:url(#filter1893)">
	<g
   id="g1840">
		<path
   d="M93.867,0C75.042,0,59.733,15.309,59.733,34.133c0,18.825,15.309,34.133,34.133,34.133    c18.825,0,34.133-15.309,34.133-34.133C128,15.309,112.691,0,93.867,0z M93.867,51.2c-9.412,0-17.067-7.654-17.067-17.067    c0-9.412,7.654-17.067,17.067-17.067c9.412,0,17.067,7.654,17.067,17.067C110.933,43.546,103.279,51.2,93.867,51.2z"
   id="path1838" />
	</g>
</g>
<g
   id="g1848"
   style="filter:url(#filter1889)">
	<g
   id="g1846">
		<path
   d="M93.867,51.2c-4.71,0-8.533,3.814-8.533,8.533v59.733c0,4.719,3.823,8.533,8.533,8.533c4.71,0,8.533-3.814,8.533-8.533    V59.733C102.4,55.014,98.577,51.2,93.867,51.2z"
   id="path1844" />
	</g>
</g>
<g
   id="g1850">
</g>
<g
   id="g1852">
</g>
<g
   id="g1854">
</g>
<g
   id="g1856">
</g>
<g
   id="g1858">
</g>
<g
   id="g1860">
</g>
<g
   id="g1862">
</g>
<g
   id="g1864">
</g>
<g
   id="g1866">
</g>
<g
   id="g1868">
</g>
<g
   id="g1870">
</g>
<g
   id="g1872">
</g>
<g
   id="g1874">
</g>
<g
   id="g1876">
</g>
<g
   id="g1878">
</g>
</svg>
