<?xml version="1.0" encoding="UTF-8"?>
<svg xmlns="http://www.w3.org/2000/svg" width="60" height="60" viewBox="0 0 256 256">
<linearGradient id="grad" gradientUnits="userSpaceOnUse" x1="87.397" x2="269.333" y1="141.973" y2="141.973" gradientTransform="matrix(1.567692,0,0,1.567692,-129.3714,-94.56962)">
<stop stop-color="#fff" stop-opacity="0.66666675" offset="0"/>
<stop stop-color="#d7d7d7" stop-opacity="0.21875" offset="0.240745"/>
<stop stop-color="#4d4d4d" stop-opacity="0" offset="0.458562"/>
<stop stop-color="#fff" stop-opacity="0.51041669" offset="0.718918"/>
<stop stop-color="#f2f2f2" stop-opacity="0.4" offset="0.873513"/>
<stop stop-color="#fff" stop-opacity="0.62352943" offset="1"/>
</linearGradient>
<polyline points="0,0 256,0 256,256 0,256" fill="none"/>
<path fill="#4d4d4d" d="M248.706,31.7801c-81.088-42.9018-162.177,53.3773-243.265,7.5331-2.81388-1.5876-5.095-0.7923-5.095,2.0246v171.941c0,2.81082,2.28112,6.57849,5.095,8.16455,81.9364,46.325,163.874-52.4641,245.81-6.13986,2.81388,1.58682,5.095,0.79226,5.095-2.02469v-171.941c0-2.81082-2.28112-6.57772-5.095-8.16532-0.84814-0.479187-1.69629-0.943066-2.54444-1.3924z"/>
<path fill="#002495" d="m248.361,37.567c0,1.85398-14.8915-10.2053-37.3092-11.0542-22.4162-2.35154-52.3554,6.50577-82.4523,15.4266-30.0979,8.8994-60.3495,17.8907-83.3895,15.5598-23.04-0.8527-38.8678-13.0268-40.1155-12.3991v171.941c1.23471-0.80222,16.907,11.4814,39.7978,12.3953,22.89,2.39899,52.9992-6.56931,83.1076-15.5078,30.1092-8.92926,60.2184-17.8562,83.1076-15.4373,22.8908,0.93235,38.5631,13.2106,39.797,12.4091v-171.941c-1.27375-0.722609-2.54444-1.3924-2.54444-1.3924z"/>
<path fill="#fff" d="M247.931,144.894c-81.216-41.843-160.198,51.492-240.4,9.045,0-55.614-6E-7,12.831-6E-7-42.7823,79.1871,41.6369,165.945-51.8971,240.574-8.81156,0,2.88301-0.17415,40.6768-0.17415,42.5487z"/>
<path fill="#fff" d="M148.8,36.1333c-6.667,1.8726-13.5,3.8611-20.267,5.8667-7.305,2.1601-14.515,4.2589-21.733,6.2667-0.053,66.7913-0.104,117.519-0.133,171.733,7.02614-1.96674,14.2117-4.0191,21.3333-6.13333,7.08003-2.09967,14.2138-4.04807,21.2-6,0.18791-56.1335-0.32721-101.756-0.4-171.733z"/>
<g fill="#fff" transform="matrix(0.42667153,-0.09740275,0,0.42666667,-0.00145905,71.88749)">
<path d="m149.498,93.8869c1.60698-2.17797,1.46998-7.42799-1.74298-9.69886-2.45798-1.55327-5.23395-1.43851-6.53094-0.551632-2.08798,0.987519-4.09896,4.76117-4.09896,8.85113l7.20993,0.942208-0.002,8.05067-14.9638-1.9822c0.196,4.16682,2.45398,7.78168,6.65593,10.183-0.54099,1.67362-3.07497,4.89627-6.55493,4.19615-0.68699,3.67334-1.33999,5.70016-4.46896,8.70732-3.13096-3.83203-3.78396-6.03216-4.47095-9.88676-3.47997-0.21811-6.01394-4.10938-6.55494-5.92575,4.20196-1.29261,6.45994-4.31167,6.65594-8.42678l-14.964-1.9651v-8.05093l7.20793,0.959944c0-4.08996-2.00798-8.39383-4.09796-9.93255-1.29699-1.2281-4.07196-2.0752-6.52894-1.17136-3.21496,1.42283-3.35296,6.63757-1.74598,9.23856-15.1818-4.82192-13.6759-19.2851-8.50391-23.9257,4.17996-3.74849,8.73691-3.81929,12.2509-1.9997,7.98592,3.91656,13.3569,14.1651,13.6179,28.4493l4.17595,0.550935c0-12.9539-2.25397-17.3812-8.12692-34.4259-2.95797-8.07917-1.18098-17.3506,4.10696-25.4059,1.89398-2.8871,4.25996-5.40692,6.97893-8.08118,2.71698,3.39142,5.08295,6.53554,6.97693,9.92238,5.28795,9.45055,7.06493,19.1909,4.10896,26.4898-5.87594,15.4946-8.12992,19.3262-8.12992,32.2811l4.17596,0.550935c0.261-14.2154,5.63395-23.0465,13.6179-24.8561,3.51396-0.891388,8.07392,0.381202,12.2519,5.23236,5.17095,6.00515,6.67694,20.8657-8.50491,21.6817z"/>
<path d="m499.498,108.397c1.60698-1.85995,1.46998-7.13708-1.74298-10.0438-2.45798-2.03969-5.23395-2.47428-6.53094-1.84408-2.08798,0.574318-4.09896,3.95001-4.09896,8.03997l7.20993,2.36902-0.002,8.05026-14.9638-4.94347c0.196,4.20561,2.45398,8.26731,6.65593,11.5002-0.54099,1.56656-3.07497,4.28775-6.55493,2.89897-0.68699,3.53738-1.33999,5.43497-4.46896,7.82293-3.13096-4.45164-3.78396-6.78099-4.47095-10.7716-3.47997-0.90678-6.01394-5.29951-6.55494-7.22293,4.20196-0.46107,6.45994-3.03329,6.65594-7.1096l-14.9648-4.92779v-8.05092l7.20793,2.38636c0-4.08996-2.00798-8.7912-4.09796-10.7435-1.29699-1.48477-4.07196-2.88102-6.52894-2.46341-3.21496,0.786605-3.35296,5.97404-1.74598,8.89304-15.1818-7.82634-13.6759-21.9915-8.50391-25.6086,4.17995-2.9213,8.73691-2.09029,12.2509,0.424689,7.98592,5.49693,13.3569,16.8083,13.6179,31.1443l4.17595,1.37734c0-12.9539-2.25397-17.8272-8.12692-36.0341-2.95797-8.66454-1.18098-17.5843,4.10696-24.5932,1.89398-2.51228,4.25996-4.5639,6.97893-6.70008,2.71698,3.9291,5.08295,7.54143,6.97693,11.3031,5.28795,10.497,7.06493,20.589,4.10896,27.303-5.87594,14.3318-8.12992,17.7173-8.12992,30.6722l4.17596,1.37734c0.261-14.1638,5.63395-21.9315,13.6179-22.1612,3.51396-0.195991,8.07392,1.97899,12.2519,7.65695,5.17095,7.02846,6.67694,22.187-8.50491,19.9986z"/>
<path d="m149.498,343.887c1.60698-2.17797,1.46998-7.42799-1.74298-9.69886-2.45798-1.55327-5.23395-1.43851-6.53094-0.55163-2.08798,0.98752-4.09896,4.76117-4.09896,8.85113l7.20993,0.94221-0.002,8.05066-14.9638-1.98219c0.196,4.16682,2.45398,7.78167,6.65593,10.183-0.54099,1.67362-3.07497,4.89627-6.55493,4.19615-0.68699,3.67334-1.33999,5.70016-4.46896,8.70732-3.13096-3.83203-3.78396-6.03216-4.47095-9.88676-3.47997-0.21811-6.01394-4.10938-6.55494-5.92575,4.20196-1.29261,6.45994-4.31167,6.65594-8.42678l-14.9648-1.96631v-8.05092l7.20793,0.95994c0-4.08996-2.00798-8.39383-4.09796-9.93255-1.29699-1.22811-4.07196-2.0752-6.52894-1.17137-3.21496,1.42284-3.35296,6.63757-1.74598,9.23856-15.1818-4.82191-13.6759-19.2851-8.50391-23.9257,4.17996-3.7485,8.73691-3.81929,12.2509-1.99971,7.98592,3.91656,13.3569,14.1651,13.6179,28.4494l4.17595,0.55094c0-12.9539-2.25397-17.3812-8.12692-34.4259-2.95797-8.07917-1.18098-17.3506,4.10696-25.4059,1.89398-2.8871,4.25996-5.40692,6.97893-8.08118,2.71698,3.39143,5.08295,6.53554,6.97693,9.92238,5.28795,9.45055,7.06493,19.1909,4.10896,26.4898-5.87594,15.4946-8.12992,19.3262-8.12992,32.2811l4.17596,0.55093c0.261-14.2154,5.63395-23.0465,13.6179-24.8561,3.51396-0.89138,8.07392,0.38121,12.2519,5.23236,5.17095,6.00515,6.67694,20.8657-8.50491,21.6817z"/>
<path d="m499.498,358.397c1.60698-1.85996,1.46998-7.13708-1.74298-10.0438-2.45798-2.03968-5.23395-2.47428-6.53094-1.84407-2.08798,0.57432-4.09896,3.95001-4.09896,8.03997l7.20993,2.36902-0.002,8.05026-14.9638-4.94347c0.196,4.20561,2.45398,8.26731,6.65593,11.5002-0.54099,1.56656-3.07497,4.28775-6.55493,2.89897-0.68699,3.53738-1.33999,5.43497-4.46896,7.82293-3.13096-4.45164-3.78396-6.78099-4.47095-10.7716-3.47997-0.90678-6.01394-5.29951-6.55494-7.22293,4.20196-0.46107,6.45994-3.03329,6.65594-7.1096l-14.9648-4.9278v-8.05092l7.20793,2.38637c0-4.08996-2.00798-8.79121-4.09796-10.7435-1.29699-1.48477-4.07196-2.88101-6.52894-2.46341-3.21496,0.78661-3.35296,5.97404-1.74598,8.89304-15.1818-7.82633-13.6759-21.9915-8.50391-25.6086,4.17995-2.9213,8.73691-2.09029,12.2509,0.42468,7.98592,5.49694,13.3569,16.8083,13.6179,31.1443l4.17595,1.37733c0-12.9539-2.25397-17.8272-8.12692-36.0341-2.95797-8.66454-1.18098-17.5844,4.10696-24.5932,1.89398-2.51229,4.25996-4.5639,6.97893-6.70008,2.71698,3.9291,5.08295,7.54143,6.97693,11.3031,5.28795,10.497,7.06493,20.589,4.10896,27.303-5.87594,14.3318-8.12992,17.7173-8.12992,30.6722l4.17596,1.37734c0.261-14.1638,5.63395-21.9316,13.6179-22.1612,3.51396-0.19599,8.07392,1.97899,12.2519,7.65695,5.17095,7.02845,6.67694,22.187-8.50491,19.9986z"/>
</g>
<path fill="url(#grad)" d="m248.36,206.96c-80.2401-42.4517-160.48,51.3771-240.72,8.92543v-166.846c80.2395,42.4515,160.48-51.3766,240.72-8.9241v166.845z"/>
</svg>