<?xml version="1.0" encoding="UTF-8" standalone="no"?>
<svg
   xmlns:dc="http://purl.org/dc/elements/1.1/"
   xmlns:cc="http://creativecommons.org/ns#"
   xmlns:rdf="http://www.w3.org/1999/02/22-rdf-syntax-ns#"
   xmlns:svg="http://www.w3.org/2000/svg"
   xmlns="http://www.w3.org/2000/svg"
   xmlns:sodipodi="http://sodipodi.sourceforge.net/DTD/sodipodi-0.dtd"
   xmlns:inkscape="http://www.inkscape.org/namespaces/inkscape"
   version="1.1"
   id="Capa_1"
   x="0px"
   y="0px"
   viewBox="0 0 513.64 513.64"
   style="enable-background:new 0 0 513.64 513.64;"
   xml:space="preserve"
   sodipodi:docname="Phone_Black_w.svg"
   inkscape:version="1.0.1 (3bc2e813f5, 2020-09-07)"><metadata
   id="metadata1499"><rdf:RDF><cc:Work
       rdf:about=""><dc:format>image/svg+xml</dc:format><dc:type
         rdf:resource="http://purl.org/dc/dcmitype/StillImage" /><dc:title></dc:title></cc:Work></rdf:RDF></metadata><defs
   id="defs1497"><filter
     style="color-interpolation-filters:sRGB;"
     inkscape:label="Greyscale"
     id="filter1503"><feColorMatrix
       values="10 10 10 10 0 10 10 10 10 0 10 10 10 10 0 0 0 0 1 0 "
       id="feColorMatrix1501" /></filter></defs><sodipodi:namedview
   pagecolor="#ffffff"
   bordercolor="#666666"
   borderopacity="1"
   objecttolerance="10"
   gridtolerance="10"
   guidetolerance="10"
   inkscape:pageopacity="0"
   inkscape:pageshadow="2"
   inkscape:window-width="723"
   inkscape:window-height="480"
   id="namedview1495"
   showgrid="false"
   inkscape:zoom="0.56459777"
   inkscape:cx="256.82"
   inkscape:cy="256.82"
   inkscape:window-x="0"
   inkscape:window-y="0"
   inkscape:window-maximized="0"
   inkscape:current-layer="g1462" />
<g
   id="g1462">
	<g
   id="g1460"
   style="filter:url(#filter1503)">
		<path
   d="M499.66,376.96l-71.68-71.68c-25.6-25.6-69.12-15.359-79.36,17.92c-7.68,23.041-33.28,35.841-56.32,30.72    c-51.2-12.8-120.32-79.36-133.12-133.12c-7.68-23.041,7.68-48.641,30.72-56.32c33.28-10.24,43.52-53.76,17.92-79.36l-71.68-71.68    c-20.48-17.92-51.2-17.92-69.12,0l-48.64,48.64c-48.64,51.2,5.12,186.88,125.44,307.2c120.32,120.32,256,176.641,307.2,125.44    l48.64-48.64C517.581,425.6,517.581,394.88,499.66,376.96z"
   id="path1458" />
	</g>
</g>
<g
   id="g1464">
</g>
<g
   id="g1466">
</g>
<g
   id="g1468">
</g>
<g
   id="g1470">
</g>
<g
   id="g1472">
</g>
<g
   id="g1474">
</g>
<g
   id="g1476">
</g>
<g
   id="g1478">
</g>
<g
   id="g1480">
</g>
<g
   id="g1482">
</g>
<g
   id="g1484">
</g>
<g
   id="g1486">
</g>
<g
   id="g1488">
</g>
<g
   id="g1490">
</g>
<g
   id="g1492">
</g>
</svg>
