<?xml version="1.0" encoding="UTF-8" standalone="no"?>
<svg
   xmlns:dc="http://purl.org/dc/elements/1.1/"
   xmlns:cc="http://creativecommons.org/ns#"
   xmlns:rdf="http://www.w3.org/1999/02/22-rdf-syntax-ns#"
   xmlns:svg="http://www.w3.org/2000/svg"
   xmlns="http://www.w3.org/2000/svg"
   xmlns:sodipodi="http://sodipodi.sourceforge.net/DTD/sodipodi-0.dtd"
   xmlns:inkscape="http://www.inkscape.org/namespaces/inkscape"
   version="1.1"
   id="Capa_1"
   x="0px"
   y="0px"
   viewBox="0 0 480 480"
   style="enable-background:new 0 0 480 480;"
   xml:space="preserve"
   sodipodi:docname="People_Staffing_w.svg"
   inkscape:version="1.0.1 (3bc2e813f5, 2020-09-07)"><metadata
   id="metadata1217"><rdf:RDF><cc:Work
       rdf:about=""><dc:format>image/svg+xml</dc:format><dc:type
         rdf:resource="http://purl.org/dc/dcmitype/StillImage" /><dc:title></dc:title></cc:Work></rdf:RDF></metadata><defs
   id="defs1215"><filter
     style="color-interpolation-filters:sRGB;"
     inkscape:label="Greyscale"
     id="filter1221"><feColorMatrix
       values="10 10 10 10 0 10 10 10 10 0 10 10 10 10 0 0 0 0 1 0 "
       id="feColorMatrix1219" /></filter><filter
     style="color-interpolation-filters:sRGB;"
     inkscape:label="Greyscale"
     id="filter1225"><feColorMatrix
       values="10 10 10 10 0 10 10 10 10 0 10 10 10 10 0 0 0 0 1 0 "
       id="feColorMatrix1223" /></filter><filter
     style="color-interpolation-filters:sRGB;"
     inkscape:label="Greyscale"
     id="filter1229"><feColorMatrix
       values="10 10 10 10 0 10 10 10 10 0 10 10 10 10 0 0 0 0 1 0 "
       id="feColorMatrix1227" /></filter><filter
     style="color-interpolation-filters:sRGB;"
     inkscape:label="Greyscale"
     id="filter1233"><feColorMatrix
       values="10 10 10 10 0 10 10 10 10 0 10 10 10 10 0 0 0 0 1 0 "
       id="feColorMatrix1231" /></filter><filter
     style="color-interpolation-filters:sRGB;"
     inkscape:label="Greyscale"
     id="filter1237"><feColorMatrix
       values="10 10 10 10 0 10 10 10 10 0 10 10 10 10 0 0 0 0 1 0 "
       id="feColorMatrix1235" /></filter><filter
     style="color-interpolation-filters:sRGB;"
     inkscape:label="Greyscale"
     id="filter1241"><feColorMatrix
       values="10 10 10 10 0 10 10 10 10 0 10 10 10 10 0 0 0 0 1 0 "
       id="feColorMatrix1239" /></filter><filter
     style="color-interpolation-filters:sRGB;"
     inkscape:label="Greyscale"
     id="filter1245"><feColorMatrix
       values="10 10 10 10 0 10 10 10 10 0 10 10 10 10 0 0 0 0 1 0 "
       id="feColorMatrix1243" /></filter><filter
     style="color-interpolation-filters:sRGB;"
     inkscape:label="Greyscale"
     id="filter1249"><feColorMatrix
       values="10 10 10 10 0 10 10 10 10 0 10 10 10 10 0 0 0 0 1 0 "
       id="feColorMatrix1247" /></filter><filter
     style="color-interpolation-filters:sRGB;"
     inkscape:label="Greyscale"
     id="filter1253"><feColorMatrix
       values="10 10 10 10 0 10 10 10 10 0 10 10 10 10 0 0 0 0 1 0 "
       id="feColorMatrix1251" /></filter><filter
     style="color-interpolation-filters:sRGB;"
     inkscape:label="Greyscale"
     id="filter1257"><feColorMatrix
       values="10 10 10 10 0 10 10 10 10 0 10 10 10 10 0 0 0 0 1 0 "
       id="feColorMatrix1255" /></filter><filter
     style="color-interpolation-filters:sRGB;"
     inkscape:label="Greyscale"
     id="filter1261"><feColorMatrix
       values="10 10 10 10 0 10 10 10 10 0 10 10 10 10 0 0 0 0 1 0 "
       id="feColorMatrix1259" /></filter></defs><sodipodi:namedview
   pagecolor="#ffffff"
   bordercolor="#666666"
   borderopacity="1"
   objecttolerance="10"
   gridtolerance="10"
   guidetolerance="10"
   inkscape:pageopacity="0"
   inkscape:pageshadow="2"
   inkscape:window-width="718"
   inkscape:window-height="480"
   id="namedview1213"
   showgrid="false"
   inkscape:zoom="0.5008673"
   inkscape:cx="288.19476"
   inkscape:cy="227.37846"
   inkscape:window-x="151"
   inkscape:window-y="60"
   inkscape:window-maximized="0"
   inkscape:current-layer="Capa_1" />
<g
   id="g1120"
   style="filter:url(#filter1233)">
	<g
   id="g1118">
		<path
   d="M240,0c-30.928,0-56,25.072-56,56c0.035,30.913,25.087,55.965,56,56c30.928,0,56-25.072,56-56S270.928,0,240,0z M240,96    c-22.091,0-40-17.909-40-40c0.026-22.08,17.92-39.974,40-40c22.091,0,40,17.909,40,40S262.091,96,240,96z"
   id="path1116" />
	</g>
</g>
<g
   id="g1126"
   style="filter:url(#filter1241)">
	<g
   id="g1124">
		<path
   d="M264,120h-48c-39.746,0.044-71.956,32.254-72,72v136h32v152h16V296h-16v16h-16V192c0.035-30.913,25.087-55.965,56-56h48    c30.913,0.035,55.965,25.087,56,56v120h-16v-16h-16v184h16V328h32V192C335.956,152.254,303.746,120.044,264,120z"
   id="path1122" />
	</g>
</g>
<g
   id="g1132"
   style="filter:url(#filter1245)">
	<g
   id="g1130">
		<rect
   x="232"
   y="328"
   width="16"
   height="152"
   id="rect1128" />
	</g>
</g>
<g
   id="g1138"
   style="filter:url(#filter1261)">
	<g
   id="g1136">
		<path
   d="M400,80c-26.51,0-48,21.49-48,48c0.026,26.499,21.501,47.974,48,48c26.51,0,48-21.49,48-48S426.51,80,400,80z M400,160    c-17.673,0-32-14.327-32-32s14.327-32,32-32c17.673,0,32,14.327,32,32S417.673,160,400,160z"
   id="path1134" />
	</g>
</g>
<g
   id="g1144"
   style="filter:url(#filter1257)">
	<g
   id="g1142">
		<path
   d="M424,184h-72v16h72c22.08,0.026,39.974,17.92,40,40v104h-16v-16h-16v152h16V360h32V240    C479.965,209.087,454.913,184.035,424,184z"
   id="path1140" />
	</g>
</g>
<g
   id="g1150"
   style="filter:url(#filter1249)">
	<g
   id="g1148">
		<polygon
   points="352,328 352,344 320,344 320,360 352,360 352,480 368,480 368,328   "
   id="polygon1146" />
	</g>
</g>
<g
   id="g1156"
   style="filter:url(#filter1253)">
	<g
   id="g1154">
		<rect
   x="392"
   y="360"
   width="16"
   height="120"
   id="rect1152" />
	</g>
</g>
<g
   id="g1162"
   style="filter:url(#filter1229)">
	<g
   id="g1160">
		<path
   d="M80,80c-26.51,0-48,21.49-48,48c0.026,26.499,21.501,47.974,48,48c26.51,0,48-21.49,48-48S106.51,80,80,80z M80,160    c-17.673,0-32-14.327-32-32s14.327-32,32-32s32,14.327,32,32S97.673,160,80,160z"
   id="path1158" />
	</g>
</g>
<g
   id="g1168"
   style="filter:url(#filter1237)">
	<g
   id="g1166">
		<path
   d="M56,184c-30.913,0.035-55.965,25.087-56,56v120h32v120h16V328H32v16H16V240c0.026-22.08,17.92-39.974,40-40h72v-16H56z"
   id="path1164" />
	</g>
</g>
<g
   id="g1174"
   style="filter:url(#filter1221)">
	<g
   id="g1172">
		<polygon
   points="128,344 128,328 112,328 112,480 128,480 128,360 160,360 160,344   "
   id="polygon1170" />
	</g>
</g>
<g
   id="g1180"
   style="filter:url(#filter1225)">
	<g
   id="g1178">
		<rect
   x="72"
   y="360"
   width="16"
   height="120"
   id="rect1176" />
	</g>
</g>
<g
   id="g1182">
</g>
<g
   id="g1184">
</g>
<g
   id="g1186">
</g>
<g
   id="g1188">
</g>
<g
   id="g1190">
</g>
<g
   id="g1192">
</g>
<g
   id="g1194">
</g>
<g
   id="g1196">
</g>
<g
   id="g1198">
</g>
<g
   id="g1200">
</g>
<g
   id="g1202">
</g>
<g
   id="g1204">
</g>
<g
   id="g1206">
</g>
<g
   id="g1208">
</g>
<g
   id="g1210">
</g>
</svg>
