<?xml version="1.0" encoding="UTF-8" standalone="no"?>
<svg
   xmlns:dc="http://purl.org/dc/elements/1.1/"
   xmlns:cc="http://creativecommons.org/ns#"
   xmlns:rdf="http://www.w3.org/1999/02/22-rdf-syntax-ns#"
   xmlns:svg="http://www.w3.org/2000/svg"
   xmlns="http://www.w3.org/2000/svg"
   xmlns:sodipodi="http://sodipodi.sourceforge.net/DTD/sodipodi-0.dtd"
   xmlns:inkscape="http://www.inkscape.org/namespaces/inkscape"
   version="1.1"
   id="Capa_1"
   x="0px"
   y="0px"
   viewBox="0 0 611.999 611.999"
   style="enable-background:new 0 0 611.999 611.999;"
   xml:space="preserve"
   sodipodi:docname="Back_to_top_w.svg"
   inkscape:version="1.0.1 (3bc2e813f5, 2020-09-07)"><metadata
   id="metadata94"><rdf:RDF><cc:Work
       rdf:about=""><dc:format>image/svg+xml</dc:format><dc:type
         rdf:resource="http://purl.org/dc/dcmitype/StillImage" /><dc:title></dc:title></cc:Work></rdf:RDF></metadata><defs
   id="defs92"><filter
     style="color-interpolation-filters:sRGB;"
     inkscape:label="Greyscale"
     id="filter98"><feColorMatrix
       values="10 10 10 10 0 10 10 10 10 0 10 10 10 10 0 0 0 0 1 0 "
       id="feColorMatrix96" /></filter></defs><sodipodi:namedview
   pagecolor="#ffffff"
   bordercolor="#666666"
   borderopacity="1"
   objecttolerance="10"
   gridtolerance="10"
   guidetolerance="10"
   inkscape:pageopacity="0"
   inkscape:pageshadow="2"
   inkscape:window-width="748"
   inkscape:window-height="480"
   id="namedview90"
   showgrid="false"
   inkscape:zoom="0.39283774"
   inkscape:cx="3.7244183"
   inkscape:cy="267.82671"
   inkscape:window-x="0"
   inkscape:window-y="0"
   inkscape:window-maximized="0"
   inkscape:current-layer="Capa_1" />
<g
   id="g57"
   style="filter:url(#filter98)">
	<g
   id="g55">
		<path
   d="M556.409,321.379c-30.701,0-55.589,24.886-55.589,55.589c0,59.766-48.623,108.391-108.386,108.391h-38.685    c-59.766,0-108.389-48.625-108.389-108.391V182.005l39.29,39.29c10.857,10.854,25.082,16.28,39.307,16.28    c14.225,0,28.453-5.426,39.31-16.282c21.708-21.708,21.708-56.906,0-78.617l-94.489-94.487    c-21.1-21.105-49.16-32.729-79.005-32.729s-57.902,11.621-79.005,32.726l-94.487,94.491c-21.708,21.708-21.708,56.906,0,78.617    c21.711,21.708,56.909,21.711,78.617-0.002l39.283-39.283v194.959c0,121.071,98.499,219.57,219.568,219.57h38.685    c121.068,0,219.565-98.499,219.565-219.57C611.999,346.265,587.112,321.379,556.409,321.379z"
   id="path53" />
	</g>
</g>
<g
   id="g59">
</g>
<g
   id="g61">
</g>
<g
   id="g63">
</g>
<g
   id="g65">
</g>
<g
   id="g67">
</g>
<g
   id="g69">
</g>
<g
   id="g71">
</g>
<g
   id="g73">
</g>
<g
   id="g75">
</g>
<g
   id="g77">
</g>
<g
   id="g79">
</g>
<g
   id="g81">
</g>
<g
   id="g83">
</g>
<g
   id="g85">
</g>
<g
   id="g87">
</g>
</svg>
